<?xml version="1.0" standalone="no"?>
<!DOCTYPE svg PUBLIC "-//W3C//DTD SVG 20010904//EN"
 "http://www.w3.org/TR/2001/REC-SVG-20010904/DTD/svg10.dtd">
<svg version="1.0" xmlns="http://www.w3.org/2000/svg"
 width="500.000000pt" height="500.000000pt" viewBox="0 0 500.000000 500.000000"
 preserveAspectRatio="xMidYMid meet">
<metadata>
Created by potrace 1.14, written by Peter Selinger 2001-2017
</metadata>
<g transform="translate(0.000000,500.000000) scale(0.100000,-0.100000)"
fill="#000000" stroke="none">
<path d="M0 2500 l0 -2500 2500 0 2500 0 0 2500 0 2500 -2500 0 -2500 0 0
-2500z m2745 1672 c364 -100 627 -364 727 -730 31 -115 32 -353 0 -475 -106
-418 -445 -713 -871 -758 -490 -51 -934 256 -1069 739 -24 88 -27 113 -26 257
1 130 5 174 22 237 106 389 401 667 787 744 99 19 337 12 430 -14z m-1505
-2374 c19 -48 38 -88 41 -88 3 0 21 39 40 88 34 86 34 87 69 87 43 0 44 6 -27
-162 -52 -125 -57 -133 -83 -133 -15 0 -30 6 -33 13 -3 6 -30 71 -60 144 -31
72 -52 134 -49 138 3 3 20 5 37 3 28 -3 33 -9 65 -90z m268 -60 l3 -148 -36 0
-35 0 0 151 0 150 33 -3 32 -3 3 -147z m173 141 c71 -24 119 -100 103 -166
-21 -88 -69 -123 -168 -123 l-66 0 0 143 c0 79 3 147 7 150 10 11 87 8 124 -4z
m304 -24 c0 -29 -2 -30 -47 -33 -43 -3 -48 -5 -48 -28 0 -22 4 -24 45 -24 43
0 45 -1 45 -30 0 -29 -2 -30 -44 -30 -36 0 -46 -4 -51 -20 -10 -31 2 -40 56
-40 48 0 49 -1 49 -30 l0 -30 -88 0 -88 0 2 93 c1 50 2 118 3 150 l1 58 83 -3
82 -3 0 -30z m241 19 c54 -26 78 -68 79 -135 0 -91 -57 -153 -143 -153 -95 0
-160 73 -150 168 12 107 117 166 214 120z m389 -14 c25 -24 34 -76 19 -115 -9
-23 -57 -45 -99 -45 l-35 0 0 -55 0 -55 -35 0 -35 0 0 143 c0 79 3 147 8 151
4 5 40 6 80 4 58 -4 77 -10 97 -28z m123 -92 l3 -118 49 0 c46 0 49 -2 52 -27
2 -20 18 11 62 120 l58 148 32 -3 c30 -3 33 -8 88 -143 32 -77 57 -143 58
-147 0 -5 -16 -8 -36 -8 -30 0 -37 4 -45 30 -10 28 -14 30 -65 30 -52 0 -56
-2 -65 -30 l-11 -30 -124 0 -124 0 0 143 c0 79 3 147 7 151 4 4 19 6 33 4 l25
-3 3 -117z m493 76 c17 -25 34 -42 38 -37 4 4 19 25 35 46 22 30 33 37 62 37
18 0 34 -4 34 -9 0 -4 -22 -41 -50 -82 -48 -71 -50 -77 -50 -141 l0 -68 -35 0
-35 0 0 65 c0 62 -3 70 -50 140 -27 41 -50 79 -50 85 0 5 16 10 35 10 29 0 38
-6 66 -46z m354 11 c0 -29 -2 -30 -47 -33 -43 -3 -48 -5 -48 -28 0 -22 4 -24
45 -24 43 0 45 -1 45 -30 0 -29 -2 -30 -45 -30 -43 0 -45 -1 -45 -30 0 -29 1
-30 50 -30 49 0 50 -1 50 -30 l0 -30 -85 0 -85 0 0 143 c0 79 3 147 7 151 4 4
41 5 83 4 l75 -3 0 -30z m195 17 c46 -23 60 -68 37 -118 -9 -18 -21 -34 -27
-34 -20 0 -9 -23 36 -76 l46 -54 -45 0 c-42 0 -47 3 -83 51 -39 50 -39 50 -42
22 -6 -67 -11 -74 -45 -71 l-32 3 -2 135 c-1 74 0 141 2 148 7 19 113 15 155
-6z m-1863 -404 c5 -7 9 -31 9 -53 -1 -38 -3 -40 -33 -43 l-33 -3 0 55 c0 52
2 56 24 56 13 0 28 -6 33 -12z m186 -12 c27 24 28 25 10 4 -22 -25 -22 -27 -6
-50 16 -25 16 -25 -3 -7 -27 22 -32 22 -37 -5 -2 -13 -4 2 -4 32 0 30 2 42 4
26 l5 -28 31 28z m214 -58 c-2 -18 -4 -6 -4 27 0 33 2 48 4 33 2 -15 2 -42 0
-60z m70 5 c-2 -16 -4 -3 -4 27 0 30 2 43 4 28 2 -16 2 -40 0 -55z m143 47
c10 0 21 -4 24 -9 3 -4 -6 -6 -19 -3 -22 4 -25 1 -25 -26 0 -17 5 -33 10 -35
6 -3 5 -4 -2 -3 -8 2 -14 22 -15 57 -1 30 1 46 4 37 2 -10 13 -18 23 -18z m67
-52 c-2 -18 -4 -6 -4 27 0 33 2 48 4 33 2 -15 2 -42 0 -60z m466 39 c21 17 21
17 7 0 -12 -16 -12 -22 0 -40 13 -22 12 -22 -8 -4 -20 18 -20 18 -25 -5 -2
-13 -4 4 -4 37 0 33 2 45 4 27 4 -34 5 -34 26 -15z m-1103 -22 c0 -5 -5 -3
-10 5 -5 8 -10 20 -10 25 0 6 5 3 10 -5 5 -8 10 -19 10 -25z m29 -17 c-11 -29
-25 -57 -31 -63 -6 -6 -6 -2 1 12 6 12 8 29 4 39 -4 11 -3 15 4 11 6 -4 16 6
22 23 5 17 12 30 15 30 3 0 -4 -24 -15 -52z m219 45 c-11 -3 -18 -17 -21 -41
l-4 -37 -1 43 c-2 38 0 42 21 41 16 -1 17 -3 5 -6z m39 -55 c-2 -13 -4 -3 -4
22 0 25 2 35 4 23 2 -13 2 -33 0 -45z m227 46 c15 -38 7 -60 -23 -62 -34 -3
-44 8 -29 28 8 12 9 12 4 -2 -4 -13 0 -18 13 -18 24 0 37 30 13 31 -14 0 -14
2 3 9 19 8 19 8 -5 18 -23 10 -23 11 -4 11 12 1 25 -6 28 -15z m153 -31 c-3
-10 -5 -2 -5 17 0 19 2 27 5 18 2 -10 2 -26 0 -35z m147 25 c9 -34 7 -48 -5
-48 -5 0 -9 8 -8 18 3 33 -1 42 -20 42 -15 0 -21 -8 -24 -37 l-4 -38 -1 43
c-2 40 -1 42 27 42 21 0 30 -6 35 -22z m88 -3 c14 -30 -5 -57 -36 -53 -21 3
-33 36 -22 64 9 23 45 16 58 -11z m67 -19 c-16 -44 -24 -45 -38 -5 -15 43 -12
51 4 14 l14 -30 13 32 c17 44 23 34 7 -11z m71 40 c0 -2 -11 -6 -25 -8 -13 -3
-22 -1 -19 3 5 9 44 13 44 5z m107 -58 c-2 -13 -4 -3 -4 22 0 25 2 35 4 23 2
-13 2 -33 0 -45z m-950 0 c-2 -13 -4 -5 -4 17 -1 22 1 32 4 23 2 -10 2 -28 0
-40z m533 17 c0 -33 -2 -35 -32 -34 -30 1 -31 2 -8 8 18 5 26 15 28 34 5 38
12 33 12 -8z m447 -12 c-3 -10 -5 -2 -5 17 0 19 2 27 5 18 2 -10 2 -26 0 -35z
m-137 12 c17 -21 0 -38 -31 -32 -22 4 -22 4 4 6 33 1 35 14 5 29 -17 8 -18 11
-7 11 9 1 22 -6 29 -14z"/>
<path d="M2340 3985 c-423 -91 -701 -502 -626 -925 53 -297 290 -553 586 -631
110 -29 281 -31 385 -5 286 74 510 292 587 574 27 100 30 297 6 387 -43 157
-113 281 -217 384 -66 65 -183 142 -269 177 -130 52 -315 68 -452 39z m268
-564 c155 -116 282 -215 282 -220 0 -9 -572 -441 -584 -441 -3 0 -6 201 -6
446 0 356 3 444 13 437 6 -6 139 -105 295 -222z"/>
<path d="M1620 1734 l0 -86 28 6 c37 9 62 42 62 81 0 41 -34 85 -66 85 -24 0
-24 -2 -24 -86z"/>
<path d="M2104 1794 c-17 -25 -21 -67 -10 -102 14 -43 84 -52 120 -16 24 23
21 99 -4 124 -30 30 -85 27 -106 -6z"/>
<path d="M2500 1797 c0 -42 5 -47 38 -38 48 13 36 71 -14 71 -21 0 -24 -5 -24
-33z"/>
<path d="M2977 1750 c-15 -35 -15 -35 10 -38 34 -5 36 0 20 39 l-15 34 -15
-35z"/>
<path d="M3694 1806 c-7 -30 1 -46 25 -46 29 0 45 25 31 49 -15 29 -48 27 -56
-3z"/>
<path d="M1870 1450 c0 -16 5 -21 23 -18 12 2 22 10 22 18 0 8 -10 16 -22 18
-18 3 -23 -2 -23 -18z"/>
<path d="M1870 1400 c0 -15 7 -20 25 -20 18 0 25 5 25 20 0 15 -7 20 -25 20
-18 0 -25 -5 -25 -20z"/>
<path d="M2810 1410 c0 -23 5 -30 19 -30 11 0 23 5 26 10 11 18 -6 50 -26 50
-14 0 -19 -7 -19 -30z"/>
</g>
</svg>
